<svg width="87" height="24" viewBox="0 0 87 24" fill="none" xmlns="http://www.w3.org/2000/svg">
<g clip-path="url(#clip0_0_2176)">
<path d="M87 18.0417C84.8091 18.6096 81.8461 18.6099 80.9918 16.0625C80.8369 15.6001 80.7765 15.1148 80.7244 14.6315L80.7258 6.79102H78.7068C78.7031 6.79102 78.6567 6.74475 78.6567 6.74109V3.99491H80.7258V0.532715H84.4968V3.99457H86.9329V6.74076C86.9329 6.74442 86.8865 6.79069 86.8829 6.79069H84.4968L84.4954 13.799C84.5445 14.1811 84.5408 14.6631 84.8455 14.9477C85.2386 15.3149 86.111 15.2476 86.6152 15.212C86.7347 15.2037 86.8795 15.1674 86.9993 15.1458V18.0417H87Z" fill="#196547"/>
<path d="M16.5858 18.1083L16.5875 9.13575C16.5317 7.78562 16.2504 6.90851 14.7353 6.82229C13.4952 6.75172 12.5865 7.2527 12.1217 8.41242C12.0796 11.609 12.1667 14.7972 12.1494 17.9934C12.1567 18.0274 12.1253 18.1083 12.0976 18.1083H8.39337C8.36567 18.1083 8.3343 18.0277 8.34165 17.9934L8.34465 8.76992C8.25688 7.76465 7.93151 7.03267 6.8536 6.8619C5.86079 6.70446 4.86031 6.91184 4.20623 7.70706C4.16651 7.75566 3.93825 8.08154 3.93825 8.10551V18.0584C3.93825 18.062 3.89186 18.1083 3.88819 18.1083H0.183602C0.179932 18.1083 0.133545 18.062 0.133545 18.0584V3.99455H3.65426C3.67295 3.99455 3.70532 4.05048 3.70432 4.07777L3.80476 5.52576C4.2376 5.09669 4.6434 4.68892 5.18368 4.38834C6.75849 3.51256 9.27772 3.44332 10.6947 4.66129C11.0781 4.99084 11.3478 5.42357 11.5967 5.85797C12.3853 4.74718 13.5677 3.97525 14.9386 3.79949C16.5968 3.58679 18.4439 3.90102 19.4494 5.34867C20.2133 6.44848 20.3044 7.64149 20.3551 8.93902C20.4729 11.9468 20.3378 14.9793 20.3915 17.9934C20.3988 18.0274 20.3675 18.1083 20.3398 18.1083H16.5855H16.5858Z" fill="#196547"/>
<path d="M49.557 18.1082H45.7693C45.5514 17.7517 45.4219 17.2916 45.3852 16.8766C45.3472 16.8316 45.0952 17.1229 45.0521 17.1598C41.8705 19.896 36.214 17.742 37.0857 13.1414C37.5018 10.9445 39.4607 9.94519 41.5031 9.6253C42.7261 9.43356 43.9505 9.49315 45.185 9.48649V8.23822C45.185 8.05248 44.9654 7.50324 44.8579 7.33281C44.0777 6.09586 41.3949 6.27728 41.1223 7.91367C41.1103 7.98624 41.134 8.25487 41.0639 8.25487H37.3096C37.3316 5.8309 39.412 4.34363 41.6075 3.90391C44.8629 3.25215 48.7604 4.41453 48.991 8.23689C49.1208 10.3909 48.9203 12.6884 48.988 14.864C49.0124 15.6463 49.0774 16.5464 49.3221 17.2936C49.4122 17.5689 49.598 17.8113 49.557 18.1078V18.1082ZM45.1853 11.6838C43.7937 11.7014 41.4253 11.4571 40.8967 13.1481C40.1095 15.6676 43.3395 16.0307 44.7728 14.6676C44.8349 14.6084 45.185 14.1773 45.185 14.13V11.6834L45.1853 11.6838Z" fill="#196547"/>
<path d="M22.993 8.25501C23.0248 5.83703 25.0958 4.34244 27.291 3.90405C30.5194 3.25928 34.4389 4.40136 34.6745 8.20375C34.8056 10.3198 34.6097 12.5907 34.6715 14.731C34.6995 15.6983 34.7733 16.5345 35.0729 17.4596C35.1453 17.6829 35.2908 17.8533 35.2405 18.108H31.4528C31.2208 17.7405 31.1371 17.2971 31.052 16.876C30.5678 17.3131 30.0648 17.7252 29.4565 17.9808C25.8036 19.5154 21.3498 16.453 23.0007 12.3736C24.1908 9.43371 28.2321 9.40375 30.9021 9.48663C30.8925 9.24863 30.9142 9.0073 30.9035 8.7693C30.8301 7.14322 30.0859 6.40924 28.4163 6.5577C27.4976 6.63925 26.742 7.29135 26.7971 8.25468H22.9927L22.993 8.25501ZM30.9021 11.6836C29.5019 11.6952 27.0557 11.4572 26.5658 13.2001C25.8617 15.704 29.0704 16.0042 30.4516 14.6794C30.5104 14.6228 30.9025 14.1338 30.9025 14.0972V11.6839L30.9021 11.6836Z" fill="#196547"/>
<path d="M54.3124 3.99463L56.9488 12.7162L59.5851 3.99463H63.6064L58.034 20.023C57.5471 21.3146 56.9514 22.5485 55.6863 23.2402C54.4859 23.8967 53.0543 23.883 51.7595 23.5342V20.6715C52.5043 20.6668 53.4654 20.7264 54.0925 20.2524C54.7139 19.7827 54.9401 18.7911 55.1957 18.0957L50.3138 4.15474L50.2908 3.99463H54.3121H54.3124Z" fill="#196547"/>
<path d="M70.9082 3.7375C74.5053 3.69156 77.0957 5.98005 77.5842 9.50815C78.1218 13.3894 76.6892 17.4951 72.4226 18.2307C68.2451 18.951 64.914 16.6775 64.3787 12.461C63.8027 7.92568 65.9231 3.80107 70.9082 3.7375ZM70.5742 6.83353C69.0624 6.98698 68.3953 8.33145 68.1874 9.67891C67.9061 11.5017 68.0202 14.8031 70.3406 15.2355C72.3442 15.609 73.4701 14.3797 73.7752 12.5226C74.1623 10.1636 73.8069 6.50499 70.5742 6.8332V6.83353Z" fill="#196547"/>
</g>
<defs>
<clipPath id="clip0_0_2176">
<rect width="87" height="24" fill="white"/>
</clipPath>
</defs>
</svg>
